<svg width="24" height="20" viewBox="0 0 24 20" fill="none" xmlns="http://www.w3.org/2000/svg">
<path d="M9.24603 5.019L9.99903 8.52C10.158 9.258 10.734 9.837 11.475 9.996L14.976 10.749C16.326 11.04 16.326 12.966 14.976 13.254L11.475 14.007C10.737 14.166 10.158 14.742 9.99903 15.483L9.24603 18.984C8.95503 20.334 7.02903 20.334 6.74103 18.984L5.98803 15.48C5.82903 14.742 5.25303 14.163 4.51203 14.004L1.01104 13.254C-0.338965 12.963 -0.338965 11.037 1.01104 10.749L4.51203 9.996C5.25003 9.837 5.82903 9.261 5.98803 8.52L6.74103 5.019C7.02903 3.669 8.95503 3.669 9.24603 5.019Z" fill="white"/>
<path d="M16.632 0.504L17.007 2.25C17.085 2.619 17.373 2.907 17.742 2.985L19.488 3.36C20.16 3.504 20.16 4.464 19.488 4.611L17.742 4.986C17.373 5.064 17.085 5.352 17.007 5.721L16.632 7.467C16.488 8.139 15.528 8.139 15.381 7.467L15.006 5.721C14.928 5.352 14.64 5.064 14.271 4.986L12.525 4.611C11.853 4.467 11.853 3.507 12.525 3.36L14.271 2.985C14.64 2.907 14.928 2.619 15.006 2.25L15.381 0.504C15.528 -0.168 16.488 -0.168 16.632 0.504Z" fill="white"/>
<path d="M22.311 8.22599L22.5 9.10199C22.539 9.28799 22.686 9.43199 22.869 9.47099L23.745 9.65999C24.084 9.73199 24.084 10.215 23.745 10.287L22.869 10.476C22.683 10.515 22.539 10.662 22.5 10.845L22.311 11.721C22.239 12.06 21.756 12.06 21.684 11.721L21.495 10.845C21.456 10.659 21.309 10.515 21.126 10.476L20.25 10.287C19.911 10.215 19.911 9.73199 20.25 9.65999L21.126 9.47099C21.312 9.43199 21.456 9.28499 21.495 9.10199L21.684 8.22599C21.756 7.88699 22.239 7.88699 22.311 8.22599Z" fill="white"/>
</svg>
