<svg width="149" height="24" viewBox="0 0 149 24" fill="none" xmlns="http://www.w3.org/2000/svg">
<path d="M22.3319 1.31858H0.929204V5.15929H9.13717V23H14.1239V5.15929H22.3319V1.31858ZM25.1187 23H29.7957V6.49115H25.1187V23ZM27.4418 4.5708C28.8665 4.5708 29.8887 3.76548 29.8887 2.37168C29.8887 0.946902 28.8665 0.141592 27.4418 0.141592C26.017 0.141592 25.0258 0.946902 25.0258 2.37168C25.0258 3.76548 26.017 4.5708 27.4418 4.5708ZM44.5923 9.71239V6.49115H39.7605V2.21681H35.0525V6.49115H31.9861V9.71239H35.0525V16.5575C35.0525 20.677 36.1985 23.2478 42.1454 23.2478C43.2295 23.2478 43.9729 23.0929 44.5923 23V19.469C40.7516 19.8717 39.7605 19.3451 39.7605 16.6504V9.71239H44.5923ZM55.8914 6.05752C51.3692 6.05752 48.0241 7.60619 47.4975 11.2611H51.8958C52.1436 10.115 53.0418 9.27876 55.8914 9.27876C59.2984 9.27876 60.0728 10.5487 60.0728 12.2832V13.0575C48.5506 12.3451 46.7542 15.1327 46.7542 18.6018C46.7542 21.854 49.4179 23.4646 53.2896 23.4646C56.9754 23.4646 59.3604 21.885 60.0728 20.8009V23H64.7807V12.2832C64.7807 7.42035 60.6303 6.05752 55.8914 6.05752ZM60.0728 18.1681C59.2055 19.6239 57.2232 20.615 54.6834 20.615C52.6391 20.615 51.4931 19.9956 51.4931 18.4469C51.4931 16.0929 53.8161 15.5044 60.0728 15.8451V18.1681ZM79.4583 6.05752C75.9273 6.05752 73.914 7.82301 73.2016 8.81416V6.49115H68.4937V23H73.2016V13.2434C73.2016 11.323 74.5025 9.55752 77.414 9.55752C80.3255 9.55752 81.4716 11.2611 81.4716 13.2434V23H86.1795V12.0664C86.1795 8.34956 83.7016 6.05752 79.4583 6.05752ZM89.9089 23H94.5859V6.49115H89.9089V23ZM92.2319 4.5708C93.6567 4.5708 94.6788 3.76548 94.6788 2.37168C94.6788 0.946902 93.6567 0.141592 92.2319 0.141592C90.8071 0.141592 89.816 0.946902 89.816 2.37168C89.816 3.76548 90.8071 4.5708 92.2319 4.5708ZM105.039 23.4646C108.57 23.4646 110.583 21.6681 111.296 20.677V23H116.004V6.49115H111.296V16.2478C111.296 18.1681 109.995 19.9336 107.083 19.9336C104.172 19.9336 103.026 18.2301 103.026 16.2478V6.49115H98.3177V17.4248C98.3177 21.1416 100.796 23.4646 105.039 23.4646ZM141.6 6.05752C137.976 6.05752 136.118 8.03982 135.529 8.93805C134.6 7.11062 132.68 6.05752 129.799 6.05752C126.423 6.05752 124.998 7.63717 124.41 8.65929V6.49115H119.733V23H124.41V13.2434C124.41 11.323 125.401 9.55752 128.034 9.55752C130.667 9.55752 131.534 11.2611 131.534 13.2434V23H136.242V13.2434C136.242 11.292 137.202 9.55752 139.835 9.55752C142.467 9.55752 143.335 11.2611 143.335 13.2434V23H148.043V12.0664C148.043 8.34956 145.844 6.05752 141.6 6.05752Z" fill="white"/>
</svg>
