<svg width="321" height="23" viewBox="0 0 321 23" fill="none" xmlns="http://www.w3.org/2000/svg">
<path d="M45.7928 16.6987C46.3651 15.3583 46.6512 13.6865 46.6512 11.6684C46.6512 9.65029 46.3651 7.94844 45.7928 6.57792C44.121 2.36095 39.9342 0.297643 33.2322 0.372946H13.5932C6.92131 0.312704 2.76458 2.37601 1.09285 6.57792C0.520544 7.93338 0.234392 9.60511 0.234392 11.6082C0.234392 13.6112 0.520544 15.283 1.09285 16.6384C2.76458 20.8253 6.92131 22.8886 13.563 22.8283H33.2322C39.9643 22.9187 44.1512 20.8705 45.7928 16.6987ZM39.7535 8.83702C40.0246 9.49968 40.1601 10.4485 40.1601 11.6835C40.1601 12.9034 40.0246 13.8371 39.7535 14.4697C39.3769 15.4788 38.6842 16.2619 37.66 16.8041C36.651 17.3463 35.175 17.6174 33.2322 17.6174H13.563C10.1142 17.6174 7.97555 16.533 7.14722 14.3793C6.86107 13.7468 6.71046 12.8281 6.71046 11.6082C6.71046 10.3883 6.86107 9.46956 7.14722 8.83702C7.97555 6.66829 10.1142 5.58392 13.5932 5.58392H33.2322C35.175 5.58392 36.6359 5.87007 37.6299 6.44238C38.639 7.01468 39.3468 7.81289 39.7535 8.83702ZM65.8083 22.1807C67.3596 21.8042 68.6699 21.2018 69.7542 20.3584C71.0043 19.4096 71.938 18.1595 72.5555 16.6384C73.1579 15.2077 73.4591 13.5209 73.4591 11.578V1.18622H67.1939V11.578C67.1939 12.3461 67.1186 13.0088 66.968 13.5962C66.6819 14.7558 66.3505 15.4486 65.6276 15.9908C64.9198 16.5179 64.483 16.7288 63.5944 16.8643C63.1577 16.9396 62.8113 16.9698 62.5703 16.9848C62.3444 16.9999 62.0131 16.9999 61.6064 16.9999C61.1998 16.9999 60.8685 16.9999 60.6275 16.9848C60.4016 16.9698 60.0552 16.9396 59.6034 16.8643C59.1515 16.789 58.7901 16.6987 58.5039 16.5782C57.9618 16.3221 57.1184 15.7649 56.6967 15.0269C56.29 14.289 55.9587 13.0992 55.9587 11.578V1.18622H49.7085V11.578C49.7085 13.5209 50.0098 15.2077 50.6272 16.6685C51.2447 18.1595 52.1935 19.3945 53.4737 20.3584C55.4165 21.8645 58.1274 22.6175 61.6064 22.6175C63.1878 22.6175 64.5884 22.4669 65.8083 22.1807ZM93.6253 22H100.568L97.2549 15.2077C97.6465 14.9516 98.008 14.6354 98.3393 14.289C99.0622 13.5811 99.6194 12.7678 100.011 11.8491C100.794 9.96656 100.794 7.75265 100.011 5.87007C99.2279 4.01762 97.7519 2.55674 95.8995 1.77358C94.9506 1.38201 93.9566 1.18622 92.9175 1.18622H77.2996V22H83.5648V16.5481H90.9445L93.6253 22ZM83.5648 6.17129H91.6524C92.3903 6.17129 93.0078 6.44238 93.5349 6.9695C94.0621 7.49662 94.3332 8.12917 94.3332 8.86714C94.3332 9.60511 94.0771 10.2377 93.55 10.7648C93.0229 11.2919 92.3903 11.5479 91.6524 11.5479H83.5648V6.17129ZM135.509 5.87007C134.726 4.01762 133.265 2.55674 131.412 1.77358C130.433 1.38201 129.439 1.18622 128.415 1.18622H114.228V22H120.493V16.5481H128.415C129.455 16.5481 130.449 16.3523 131.412 15.9607C133.265 15.1775 134.726 13.7016 135.509 11.8491C136.292 9.96656 136.292 7.75265 135.509 5.87007ZM127.15 11.5479H120.493V6.17129H127.15C127.888 6.17129 128.521 6.44238 129.048 6.9695C129.575 7.49662 129.846 8.12917 129.846 8.86714C129.846 9.60511 129.575 10.2377 129.048 10.7648C128.521 11.2919 127.888 11.5479 127.15 11.5479ZM145.208 1.18622L134.997 22H141.97L143.205 19.4999H154.214L155.449 22H162.392L152.181 1.18622H145.208ZM145.615 14.4998L148.702 8.27977L151.714 14.4998H145.615ZM181.097 22H188.04L184.727 15.2077C185.119 14.9516 185.48 14.6354 185.811 14.289C186.534 13.5811 187.092 12.7678 187.483 11.8491C188.266 9.96656 188.266 7.75265 187.483 5.87007C186.7 4.01762 185.224 2.55674 183.372 1.77358C182.423 1.38201 181.429 1.18622 180.39 1.18622H164.772V22H171.037V16.5481H178.417L181.097 22ZM171.037 6.17129H179.124C179.862 6.17129 180.48 6.44238 181.007 6.9695C181.534 7.49662 181.805 8.12917 181.805 8.86714C181.805 9.60511 181.549 10.2377 181.022 10.7648C180.495 11.2919 179.862 11.5479 179.124 11.5479H171.037V6.17129ZM212.936 1.18622H190.013V6.17129H198.342V22H204.607V6.17129H212.936V1.18622ZM234.276 14.0781L222.966 1.18622H215.646V22H221.912V10.1322L232.424 22H240.512V1.18622H234.276V14.0781ZM266.085 6.17129V1.18622H244.804V22H266.085V16.9999H251.069V14.0781H264.865V9.07799H251.069V6.17129H266.085ZM286.251 22H293.194L289.88 15.2077C290.272 14.9516 290.633 14.6354 290.965 14.289C291.688 13.5811 292.245 12.7678 292.636 11.8491C293.42 9.96656 293.42 7.75265 292.636 5.87007C291.853 4.01762 290.377 2.55674 288.525 1.77358C287.576 1.38201 286.582 1.18622 285.543 1.18622H269.925V22H276.19V16.5481H283.57L286.251 22ZM276.19 6.17129H284.278C285.016 6.17129 285.633 6.44238 286.16 6.9695C286.687 7.49662 286.959 8.12917 286.959 8.86714C286.959 9.60511 286.703 10.2377 286.175 10.7648C285.648 11.2919 285.016 11.5479 284.278 11.5479H276.19V6.17129ZM320.709 7.31589C320.694 6.3972 320.514 5.5538 320.182 4.81583C319.685 3.68628 318.857 2.78265 317.682 2.10492C315.89 1.06574 312.818 0.538613 308.465 0.538613H308.33C303.977 0.538613 300.905 1.06574 299.112 2.10492C297.938 2.78265 297.109 3.68628 296.612 4.81583C296.266 5.59898 296.085 6.51768 296.085 7.58698C296.085 8.64123 296.266 9.51474 296.642 10.2226C297.305 11.4877 298.42 12.4214 299.67 12.9787C300.302 13.2648 301.1 13.4757 302.049 13.6414C303.013 13.807 303.962 13.9124 304.896 13.9877C305.829 14.048 306.989 14.0932 308.36 14.1384L312.125 14.3492C312.667 14.3944 312.938 14.4546 313.405 14.6354C313.887 14.801 314.158 15.1173 314.203 15.6143C314.263 16.4728 313.646 17.0601 312.351 17.3463C311.507 17.527 310.212 17.6174 308.465 17.6174H308.33C306.522 17.6174 305.197 17.527 304.354 17.3463C303.721 17.2107 303.254 16.9848 302.968 16.6987C302.697 16.4426 302.561 16.0059 302.561 15.3733V15.2378H296.085V15.7649C296.1 16.7137 296.281 17.5421 296.612 18.265C297.109 19.4096 297.938 20.3283 299.112 21.006C300.905 22.0452 303.977 22.5572 308.33 22.5572H308.465C312.742 22.5422 315.8 22.0151 317.652 20.9458C318.827 20.268 319.655 19.3644 320.152 18.2348C320.499 17.4366 320.679 16.5029 320.679 15.4637C320.679 14.4245 320.499 13.551 320.122 12.8431C319.459 11.5178 318.33 10.6292 317.08 10.087C316.462 9.8009 315.664 9.59005 314.7 9.42438C313.751 9.25871 312.803 9.13823 311.854 9.06293C310.92 8.98762 309.76 8.94244 308.36 8.92738L304.67 8.70147C304.128 8.62617 303.887 8.58099 303.39 8.44544C302.908 8.30989 302.637 7.99362 302.561 7.52674C302.441 6.66829 302.998 6.09598 304.233 5.77971C305.061 5.58392 306.357 5.4785 308.149 5.46344H308.435C310.242 5.4785 311.568 5.56886 312.411 5.74959C313.059 5.88513 313.541 6.11104 313.827 6.3972C314.098 6.63817 314.233 7.08998 314.233 7.75265V7.84302H320.709V7.31589Z" fill="white"/>
</svg>
